<?xml version="1.0" encoding="UTF-8"?>
<svg xmlns="http://www.w3.org/2000/svg" xmlns:xlink="http://www.w3.org/1999/xlink" width="370pt" height="371pt" viewBox="0 0 370 371" version="1.1">
<defs>
<clipPath id="clip1">
  <path d="M 5 6 L 365 6 L 365 365 L 5 365 Z M 5 6 "/>
</clipPath>
</defs>
<g id="surface4">
<path style="fill-rule:nonzero;fill:rgb(84.999084%,84.999084%,84.999084%);fill-opacity:1;stroke-width:0.03;stroke-linecap:square;stroke-linejoin:miter;stroke:rgb(84.999084%,84.999084%,84.999084%);stroke-opacity:1;stroke-miterlimit:3.25;" d="M 356.820312 185.210938 L 184.5 357.53125 L 12.179688 185.210938 L 184.5 12.894531 Z M 356.820312 185.210938 "/>
<g clip-path="url(#clip1)" clip-rule="nonzero">
<path style="fill:none;stroke-width:2;stroke-linecap:square;stroke-linejoin:miter;stroke:rgb(50%,50%,50%);stroke-opacity:1;stroke-miterlimit:3.25;" d="M 356.820312 185.210938 L 184.5 357.53125 L 12.179688 185.210938 L 184.5 12.894531 Z M 356.820312 185.210938 "/>
</g>
<path style=" stroke:none;fill-rule:evenodd;fill:rgb(33.332825%,33.332825%,33.332825%);fill-opacity:1;" d="M 360.5 185 C 360.5 184.070312 360.132812 183.179688 359.476562 182.523438 C 358.820312 181.867188 357.929688 181.5 357 181.5 C 356.070312 181.5 355.179688 181.867188 354.523438 182.523438 C 353.867188 183.179688 353.5 184.070312 353.5 185 C 353.5 185.929688 353.867188 186.820312 354.523438 187.476562 C 355.179688 188.132812 356.070312 188.5 357 188.5 C 357.929688 188.5 358.820312 188.132812 359.476562 187.476562 C 360.132812 186.820312 360.5 185.929688 360.5 185 Z M 360.5 185 "/>
<path style=" stroke:none;fill-rule:evenodd;fill:rgb(33.332825%,33.332825%,33.332825%);fill-opacity:1;" d="M 188.5 358 C 188.5 357.070312 188.132812 356.179688 187.476562 355.523438 C 186.820312 354.867188 185.929688 354.5 185 354.5 C 184.070312 354.5 183.179688 354.867188 182.523438 355.523438 C 181.867188 356.179688 181.5 357.070312 181.5 358 C 181.5 358.929688 181.867188 359.820312 182.523438 360.476562 C 183.179688 361.132812 184.070312 361.5 185 361.5 C 185.929688 361.5 186.820312 361.132812 187.476562 360.476562 C 188.132812 359.820312 188.5 358.929688 188.5 358 Z M 188.5 358 "/>
<path style=" stroke:none;fill-rule:evenodd;fill:rgb(33.332825%,33.332825%,33.332825%);fill-opacity:1;" d="M 15.5 185 C 15.5 184.070312 15.132812 183.179688 14.476562 182.523438 C 13.820312 181.867188 12.929688 181.5 12 181.5 C 11.070312 181.5 10.179688 181.867188 9.523438 182.523438 C 8.867188 183.179688 8.5 184.070312 8.5 185 C 8.5 185.929688 8.867188 186.820312 9.523438 187.476562 C 10.179688 188.132812 11.070312 188.5 12 188.5 C 12.929688 188.5 13.820312 188.132812 14.476562 187.476562 C 15.132812 186.820312 15.5 185.929688 15.5 185 Z M 15.5 185 "/>
<path style=" stroke:none;fill-rule:evenodd;fill:rgb(33.332825%,33.332825%,33.332825%);fill-opacity:1;" d="M 188.5 13 C 188.5 12.070312 188.132812 11.179688 187.476562 10.523438 C 186.820312 9.867188 185.929688 9.5 185 9.5 C 184.070312 9.5 183.179688 9.867188 182.523438 10.523438 C 181.867188 11.179688 181.5 12.070312 181.5 13 C 181.5 13.929688 181.867188 14.820312 182.523438 15.476562 C 183.179688 16.132812 184.070312 16.5 185 16.5 C 185.929688 16.5 186.820312 16.132812 187.476562 15.476562 C 188.132812 14.820312 188.5 13.929688 188.5 13 Z M 188.5 13 "/>
</g>
</svg>
